# xmcd
#
# Track frame offsets:
#	150
#	13477
#	26872
#	40640
#	56212
#	70276
#	85361
#	99226
#	115251
#	129159
#	141934
#	155660
#	168664
#
# Disc length: 2444 seconds
#
# Revision: 1
# Processed by: cddbd v1.5.2PL0 Copyright (c) Steve Scherf et al.
# Submitted via: audiograbber 1.83.01
#
DISCID=b7098a0d
DTITLE=Bobby Bare - CB90118R
DYEAR=2006
DGENRE=Karaoke
TTITLE0=500 Miles Away From Home
TTITLE1=Detroit City
TTITLE2=Daddy What If
TTITLE3=Marie Laveau
TTITLE4=Miller's Cave
TTITLE5=Four Strong Winds
TTITLE6=It's Alright
TTITLE7=(Margie's At) The Lincoln Park Inn
TTITLE8=How I Got To Memphis
TTITLE9=Please Don't Tell Me How The Story Ends
TTITLE10=The Game Of Triangles
TTITLE11=Chicken Every Sunday
TTITLE12=All American boy
EXTD=
EXTT0=
EXTT1=
EXTT2=
EXTT3=
EXTT4=
EXTT5=
EXTT6=
EXTT7=
EXTT8=
EXTT9=
EXTT10=
EXTT11=
EXTT12=
PLAYORDER=
